<svg xmlns="http://www.w3.org/2000/svg" viewBox="0 0 512 512">
  <rect width="512" height="512" rx="108" fill="#161827"/>
  <circle cx="256" cy="270" r="154" fill="#d99a4e" stroke="#ffd873" stroke-width="18"/>
  <path d="M150 230c27-82 176-111 232-9 49 90-9 190-116 193-108 3-160-92-116-184Z" fill="#c88340"/>
  <circle cx="211" cy="266" r="17" fill="#171522"/>
  <circle cx="310" cy="266" r="17" fill="#171522"/>
  <path d="M208 334c29 25 69 26 101 0" fill="none" stroke="#171522" stroke-width="18" stroke-linecap="round"/>
  <circle cx="169" cy="196" r="17" fill="#a96535"/>
  <circle cx="346" cy="338" r="14" fill="#a96535"/>
  <path d="M256 55 278 99 326 106 291 140 299 188 256 165 213 188 221 140 186 106 234 99Z" fill="#ffd23e"/>
</svg>
